<?xml version="1.0" standalone="no"?>
<svg xmlns:xlink="http://www.w3.org/1999/xlink" id="wave" style="transform:rotate(0deg); transition: 0.3s" viewBox="0 0 1440 440" version="1.1" xmlns="http://www.w3.org/2000/svg"><defs><linearGradient id="sw-gradient-0" x1="0" x2="0" y1="1" y2="0"><stop stop-color="rgba(50, 75, 170, 1)" offset="0%"/><stop stop-color="rgba(102.628, 122.117, 196.174, 1)" offset="100%"/></linearGradient></defs><path style="transform:translate(0, 0px); opacity:1" fill="url(#sw-gradient-0)" d="M0,176L60,168.7C120,161,240,147,360,146.7C480,147,600,161,720,183.3C840,205,960,235,1080,256.7C1200,279,1320,293,1440,271.3C1560,249,1680,191,1800,183.3C1920,176,2040,220,2160,264C2280,308,2400,352,2520,359.3C2640,367,2760,337,2880,286C3000,235,3120,161,3240,168.7C3360,176,3480,264,3600,308C3720,352,3840,352,3960,322.7C4080,293,4200,235,4320,242C4440,249,4560,323,4680,315.3C4800,308,4920,220,5040,212.7C5160,205,5280,279,5400,300.7C5520,323,5640,293,5760,293.3C5880,293,6000,323,6120,330C6240,337,6360,323,6480,264C6600,205,6720,103,6840,117.3C6960,132,7080,264,7200,330C7320,396,7440,396,7560,366.7C7680,337,7800,279,7920,242C8040,205,8160,191,8280,198C8400,205,8520,235,8580,249.3L8640,264L8640,440L8580,440C8520,440,8400,440,8280,440C8160,440,8040,440,7920,440C7800,440,7680,440,7560,440C7440,440,7320,440,7200,440C7080,440,6960,440,6840,440C6720,440,6600,440,6480,440C6360,440,6240,440,6120,440C6000,440,5880,440,5760,440C5640,440,5520,440,5400,440C5280,440,5160,440,5040,440C4920,440,4800,440,4680,440C4560,440,4440,440,4320,440C4200,440,4080,440,3960,440C3840,440,3720,440,3600,440C3480,440,3360,440,3240,440C3120,440,3000,440,2880,440C2760,440,2640,440,2520,440C2400,440,2280,440,2160,440C2040,440,1920,440,1800,440C1680,440,1560,440,1440,440C1320,440,1200,440,1080,440C960,440,840,440,720,440C600,440,480,440,360,440C240,440,120,440,60,440L0,440Z"/></svg>